# xmcd
#
# Track frame offsets: 
#        150
#        17222
#        26682
#        39100
#        50740
#        60787
#        73220
#        84962
#        96097
#        107462
#        117940
#        131015
#        144420
#        167385
#        177732
#        188687
#        199655
#        211120
#        222822
#        235040
#        248410
#        259080
#        273882
#        289330
#        302192
#        312970
#        323605
#        335802
#
# Disc length: 4628 seconds
#
# Revision: 6
# Processed by: cddbd v1.5.2PL0 Copyright (c) Steve Scherf et al.
# Submitted via: ExactAudioCopy v0.90b4
#
DISCID=8812121c
DTITLE=Various Artist - Birth Of Soul Vol. 2
DYEAR=1998
DGENRE=Soul
TTITLE0=The Caravans - Walk Around Heaven All Day
TTITLE1=The Invincibles -  Heart Full Of Love
TTITLE2=Gene Chandler -  Man's Temptation
TTITLE3=The Diplomats - Here's A Heart
TTITLE4=The Drifters - There Goes My Baby
TTITLE5=The Serenaders - Two Lovers Make One Fool
TTITLE6=The Cookies - I Never Dreamed
TTITLE7=Marie Knight - Come Tomorrow
TTITLE8=Brenda Holloway - I'll Give My Life
TTITLE9=Jay Wiggins - Sad Girl
TTITLE10=The Freeman Brothers - I'm Counting On You
TTITLE11=The Falcons - I Found A Love
TTITLE12=Ray Charles - What'd I Say
TTITLE13=The Showmen - The Wrong Girl
TTITLE14=Benny Spellman - Lipstick Traces (On A Cigarette)
TTITLE15=Solomon Burke - Down In The Valley
TTITLE16=Willie Tee - Always Accused
TTITLE17=The Manhattans - Call Somebody Please
TTITLE18=The Wallace Brothers - Lover's Prayer
TTITLE19=Theola Kilgore - This Is My Prayer
TTITLE20=Eddie and Ernie - Time Waits For No One
TTITLE21=Betty Harris - Cry To Me
TTITLE22=Vernell Hill - Long Haired Daddy
TTITLE23=Birdlegs and Pauline And Their Versatility Birds - Spring
TTITLE24=Kenny Gamble - Standing In The Shadows
TTITLE25=Major Lance - Um, Um, Um, Um, Um, Um
TTITLE26=Johnny Nash - It's No Good For Me
TTITLE27=Maxine Brown - All In My Mind
EXTD=
EXTT0=
EXTT1=
EXTT2=
EXTT3=
EXTT4=
EXTT5=
EXTT6=
EXTT7=
EXTT8=
EXTT9=
EXTT10=
EXTT11=
EXTT12=
EXTT13=
EXTT14=
EXTT15=
EXTT16=
EXTT17=
EXTT18=
EXTT19=
EXTT20=
EXTT21=
EXTT22=
EXTT23=
EXTT24=
EXTT25=
EXTT26=
EXTT27=
PLAYORDER=
